<svg width="1162" height="444" xmlns="http://www.w3.org/2000/svg" xmlns:xlink="http://www.w3.org/1999/xlink" xml:space="preserve" overflow="hidden"><defs><clipPath id="clip0"><rect x="1619" y="131" width="1162" height="444"/></clipPath></defs><g clip-path="url(#clip0)" transform="translate(-1619 -131)"><path d="M1619 575C1619 575 1685.19 336.424 2192.82 332.604 2700.45 328.767 2780.38 157 2780.38 157 2780.38 157 2812 368.819 2422.8 446.077 2033.59 523.334 1810.01 356.32 1619 575" fill="#002B16" fill-rule="evenodd"/><path d="M1624 564C1624 564 1687.34 323.935 2194.85 314.086 2702.35 304.219 2780.24 131 2780.24 131 2780.24 131 2814.36 343.065 2426.13 425.169 2037.91 507.265 1812.38 342.413 1624 564" fill="#004225" fill-rule="evenodd"/><path d="M1966.3 359.797C1959.5 359.797 1953.65 362.318 1948.75 367.361 1943.85 372.404 1941.41 378.469 1941.41 385.555 1941.41 392.777 1943.85 398.909 1948.75 403.952 1953.65 408.994 1959.5 411.515 1966.3 411.515 1969.56 411.515 1972.65 411.107 1975.58 410.286 1978.5 409.469 1980.64 408.649 1982 407.829L1983.83 406.599 1996.07 431.749C1995.11 432.433 1993.78 433.288 1992.08 434.308 1990.39 435.332 1986.52 436.725 1980.47 438.49 1974.42 440.263 1967.92 441.15 1960.99 441.15 1945.62 441.15 1932.13 435.737 1920.5 424.908 1908.87 414.071 1903.07 401.088 1903.07 385.96 1903.07 370.7 1908.87 357.58 1920.5 346.608 1932.13 335.636 1945.62 330.15 1960.99 330.15 1967.92 330.15 1974.31 330.97 1980.15 332.608 1986 334.239 1990.15 335.873 1992.6 337.511L1996.07 339.969 1983.83 364.7C1979.35 361.432 1973.5 359.797 1966.3 359.797Z" fill="#C0C0C0" fill-rule="evenodd"/><path d="M1998.72 425.11C1988.96 414.411 1984.08 401.291 1984.08 385.758 1984.08 370.218 1988.96 357.067 1998.72 346.303 2008.48 335.534 2020.89 330.15 2035.93 330.15 2049.76 330.15 2061.15 334.514 2070.1 343.237L2070.1 333.216 2106.08 333.216 2106.08 438.084 2070.5 438.084 2070.5 426.225 2070.1 426.225C2061.15 436.177 2049.76 441.15 2035.93 441.15 2020.89 441.15 2008.48 435.804 1998.72 425.11ZM2029.33 367.969C2024.65 372.606 2022.31 378.536 2022.31 385.758 2022.31 392.979 2024.54 398.877 2029.01 403.445 2033.49 408.006 2039.39 410.286 2046.71 410.286 2053.76 410.286 2059.55 407.974 2064.09 403.343 2068.63 398.706 2070.91 392.846 2070.91 385.758 2070.91 378.536 2068.57 372.606 2063.89 367.969 2059.22 363.332 2053.49 361.013 2046.71 361.013 2039.8 361.013 2034.01 363.332 2029.33 367.969Z" fill="#C0C0C0" fill-rule="evenodd"/><path d="M2112.11 438.15 2112.11 262.15 2148.11 262.15 2148.11 438.15Z" fill="#C0C0C0" fill-rule="evenodd"/><path d="M2156.47 274.498C2160.7 270.267 2165.75 268.15 2171.62 268.15 2177.49 268.15 2182.54 270.267 2186.77 274.498 2191 278.731 2193.12 283.784 2193.12 289.655 2193.12 295.531 2191 300.583 2186.77 304.814 2182.54 309.048 2177.49 311.161 2171.62 311.161 2165.75 311.161 2160.7 309.048 2156.47 304.814 2152.23 300.583 2150.12 295.531 2150.12 289.655 2150.12 283.784 2152.23 278.731 2156.47 274.498ZM2152.99 333.073 2152.99 438.15 2189.24 438.15 2189.24 333.073Z" fill="#C0C0C0" fill-rule="evenodd"/><path d="M2303.36 346.229C2313.2 357.001 2318.13 370.163 2318.13 385.714 2318.13 401.26 2313.2 414.39 2303.36 425.098 2293.53 435.799 2281.03 441.15 2265.85 441.15 2251.92 441.15 2240.44 436.174 2231.42 426.214L2231 426.214 2231 438.082 2195.13 438.082 2195.13 262.15 2231.42 262.15 2231.42 343.161C2240.44 334.431 2251.92 330.063 2265.85 330.063 2281.03 330.063 2293.53 335.452 2303.36 346.229ZM2272.82 403.415C2277.33 398.844 2279.59 392.942 2279.59 385.714 2279.59 378.487 2277.23 372.553 2272.51 367.912 2267.8 363.271 2261.96 360.951 2254.99 360.951 2248.15 360.951 2242.38 363.271 2237.66 367.912 2232.95 372.553 2230.59 378.487 2230.59 385.714 2230.59 392.809 2232.88 398.673 2237.45 403.314 2242.04 407.948 2247.88 410.262 2254.99 410.262 2262.37 410.262 2268.31 407.98 2272.82 403.415Z" fill="#C0C0C0" fill-rule="evenodd"/><path d="M2421.95 390.661 2345.82 390.661C2345.82 398.019 2348.2 403.47 2352.97 407.018 2357.75 410.559 2362.94 412.326 2368.54 412.326 2374.4 412.326 2379.03 411.547 2382.44 409.982 2385.85 408.411 2389.75 405.307 2394.11 400.67L2420.32 413.758C2409.4 432.022 2391.25 441.15 2365.87 441.15 2350.04 441.15 2336.46 435.737 2325.14 424.908 2313.82 414.071 2308.16 401.022 2308.16 385.758 2308.16 370.497 2313.82 357.412 2325.14 346.506 2336.46 335.604 2350.04 330.15 2365.87 330.15 2382.51 330.15 2396.05 334.958 2406.49 344.568 2416.93 354.172 2422.16 367.903 2422.16 385.758 2422.16 388.209 2422.09 389.844 2421.95 390.661ZM2346.83 370.63 2386.75 370.63C2385.93 365.175 2383.78 360.985 2380.29 358.061 2376.82 355.131 2372.35 353.665 2366.9 353.665 2360.89 353.665 2356.12 355.233 2352.57 358.366 2349.02 361.501 2347.11 365.587 2346.83 370.63Z" fill="#C0C0C0" fill-rule="evenodd"/><path d="M2420.18 438.15 2420.18 333.218 2456.13 333.218 2456.13 348.355 2456.54 348.355C2456.8 347.816 2457.24 347.134 2457.86 346.313 2458.47 345.496 2459.79 344.063 2461.82 342.016 2463.85 339.972 2466.02 338.133 2468.32 336.502 2470.62 334.863 2473.6 333.396 2477.25 332.102 2480.9 330.802 2484.63 330.15 2488.43 330.15 2492.35 330.15 2496.21 330.695 2500 331.785 2503.79 332.875 2506.57 333.966 2508.33 335.056L2511.18 336.704 2496.14 367.384C2491.68 363.565 2485.45 361.654 2477.46 361.654 2473.13 361.654 2469.4 362.611 2466.28 364.519 2463.17 366.43 2460.97 368.75 2459.68 371.479 2458.4 374.201 2457.48 376.518 2456.94 378.426 2456.4 380.337 2456.13 381.836 2456.13 382.927L2456.13 438.15Z" fill="#C0C0C0" fill-rule="evenodd"/></g></svg>