<svg width="1162" height="444" xmlns="http://www.w3.org/2000/svg" xmlns:xlink="http://www.w3.org/1999/xlink" xml:space="preserve" overflow="hidden"><defs><clipPath id="clip0"><rect x="3005" y="131" width="1162" height="444"/></clipPath></defs><g clip-path="url(#clip0)" transform="translate(-3005 -131)"><path d="M3005 575C3005 575 3071.19 336.424 3578.82 332.604 4086.45 328.767 4166.38 157 4166.38 157 4166.38 157 4198 368.819 3808.8 446.077 3419.59 523.334 3196.01 356.32 3005 575" fill="#7F7F7F" fill-rule="evenodd"/><path d="M3010 564C3010 564 3073.34 323.935 3580.85 314.086 4088.35 304.219 4166.24 131 4166.24 131 4166.24 131 4200.36 343.065 3812.13 425.169 3423.91 507.265 3198.38 342.413 3010 564" fill="#C0C0C0" fill-rule="evenodd"/><path d="M3352.3 359.797C3345.5 359.797 3339.65 362.318 3334.75 367.361 3329.85 372.404 3327.41 378.469 3327.41 385.555 3327.41 392.777 3329.85 398.909 3334.75 403.952 3339.65 408.994 3345.5 411.515 3352.3 411.515 3355.56 411.515 3358.65 411.107 3361.57 410.286 3364.5 409.469 3366.64 408.649 3368 407.829L3369.83 406.599 3382.07 431.749C3381.11 432.433 3379.78 433.288 3378.08 434.308 3376.39 435.332 3372.52 436.725 3366.47 438.49 3360.42 440.263 3353.92 441.15 3346.99 441.15 3331.62 441.15 3318.13 435.737 3306.5 424.908 3294.87 414.071 3289.07 401.088 3289.07 385.96 3289.07 370.7 3294.87 357.58 3306.5 346.608 3318.13 335.636 3331.62 330.15 3346.99 330.15 3353.92 330.15 3360.31 330.97 3366.15 332.608 3372 334.239 3376.15 335.873 3378.6 337.511L3382.07 339.969 3369.83 364.7C3365.35 361.432 3359.5 359.797 3352.3 359.797Z" fill="#FFFFFF" fill-rule="evenodd"/><path d="M3384.72 425.11C3374.96 414.411 3370.08 401.291 3370.08 385.758 3370.08 370.218 3374.96 357.067 3384.72 346.303 3394.48 335.534 3406.89 330.15 3421.93 330.15 3435.76 330.15 3447.15 334.514 3456.1 343.237L3456.1 333.216 3492.08 333.216 3492.08 438.084 3456.5 438.084 3456.5 426.225 3456.1 426.225C3447.15 436.177 3435.76 441.15 3421.93 441.15 3406.89 441.15 3394.48 435.804 3384.72 425.11ZM3415.33 367.969C3410.65 372.606 3408.31 378.536 3408.31 385.758 3408.31 392.979 3410.54 398.877 3415.01 403.445 3419.49 408.006 3425.39 410.286 3432.71 410.286 3439.76 410.286 3445.55 407.974 3450.09 403.343 3454.63 398.706 3456.91 392.846 3456.91 385.758 3456.91 378.536 3454.57 372.606 3449.89 367.969 3445.22 363.332 3439.49 361.013 3432.71 361.013 3425.8 361.013 3420.01 363.332 3415.33 367.969Z" fill="#FFFFFF" fill-rule="evenodd"/><path d="M3498.11 438.15 3498.11 262.15 3534.11 262.15 3534.11 438.15Z" fill="#FFFFFF" fill-rule="evenodd"/><path d="M3542.47 274.498C3546.7 270.267 3551.75 268.15 3557.62 268.15 3563.49 268.15 3568.54 270.267 3572.77 274.498 3577 278.731 3579.12 283.784 3579.12 289.655 3579.12 295.531 3577 300.583 3572.77 304.814 3568.54 309.048 3563.49 311.161 3557.62 311.161 3551.75 311.161 3546.7 309.048 3542.47 304.814 3538.23 300.583 3536.12 295.531 3536.12 289.655 3536.12 283.784 3538.23 278.731 3542.47 274.498ZM3538.99 333.073 3538.99 438.15 3575.24 438.15 3575.24 333.073Z" fill="#FFFFFF" fill-rule="evenodd"/><path d="M3689.48 346.229C3699.24 357.001 3704.13 370.163 3704.13 385.714 3704.13 401.26 3699.24 414.39 3689.48 425.098 3679.73 435.799 3667.33 441.15 3652.28 441.15 3638.46 441.15 3627.07 436.174 3618.12 426.214L3617.71 426.214 3617.71 438.082 3582.13 438.082 3582.13 262.15 3618.12 262.15 3618.12 343.161C3627.07 334.431 3638.46 330.063 3652.28 330.063 3667.33 330.063 3679.73 335.452 3689.48 346.229ZM3659.18 403.415C3663.66 398.844 3665.9 392.942 3665.9 385.714 3665.9 378.487 3663.56 372.553 3658.88 367.912 3654.21 363.271 3648.41 360.951 3641.5 360.951 3634.72 360.951 3628.99 363.271 3624.31 367.912 3619.64 372.553 3617.3 378.487 3617.3 385.714 3617.3 392.809 3619.57 398.673 3624.11 403.314 3628.65 407.948 3634.45 410.262 3641.5 410.262 3648.82 410.262 3654.71 407.98 3659.18 403.415Z" fill="#FFFFFF" fill-rule="evenodd"/><path d="M3807.95 390.661 3731.82 390.661C3731.82 398.019 3734.2 403.47 3738.97 407.018 3743.75 410.559 3748.94 412.326 3754.54 412.326 3760.4 412.326 3765.03 411.547 3768.44 409.982 3771.85 408.411 3775.75 405.307 3780.11 400.67L3806.32 413.758C3795.4 432.022 3777.25 441.15 3751.87 441.15 3736.04 441.15 3722.46 435.737 3711.14 424.908 3699.82 414.071 3694.16 401.022 3694.16 385.758 3694.16 370.497 3699.82 357.412 3711.14 346.506 3722.46 335.604 3736.04 330.15 3751.87 330.15 3768.51 330.15 3782.05 334.958 3792.49 344.568 3802.93 354.172 3808.16 367.903 3808.16 385.758 3808.16 388.209 3808.09 389.844 3807.95 390.661ZM3732.83 370.63 3772.75 370.63C3771.93 365.175 3769.78 360.985 3766.29 358.061 3762.82 355.131 3758.35 353.665 3752.9 353.665 3746.89 353.665 3742.12 355.233 3738.57 358.366 3735.02 361.501 3733.11 365.587 3732.83 370.63Z" fill="#FFFFFF" fill-rule="evenodd"/><path d="M3806.18 438.15 3806.18 333.218 3842.13 333.218 3842.13 348.355 3842.54 348.355C3842.8 347.816 3843.24 347.134 3843.86 346.313 3844.47 345.496 3845.79 344.063 3847.82 342.016 3849.85 339.972 3852.02 338.133 3854.32 336.502 3856.62 334.863 3859.6 333.396 3863.25 332.102 3866.9 330.802 3870.63 330.15 3874.43 330.15 3878.35 330.15 3882.21 330.695 3886 331.785 3889.79 332.875 3892.57 333.966 3894.33 335.056L3897.18 336.704 3882.14 367.384C3877.68 363.565 3871.45 361.654 3863.46 361.654 3859.13 361.654 3855.4 362.611 3852.28 364.519 3849.17 366.43 3846.97 368.75 3845.68 371.479 3844.4 374.201 3843.48 376.518 3842.94 378.426 3842.4 380.337 3842.13 381.836 3842.13 382.927L3842.13 438.15Z" fill="#FFFFFF" fill-rule="evenodd"/></g></svg>