<svg width="1176" height="447" xmlns="http://www.w3.org/2000/svg" xmlns:xlink="http://www.w3.org/1999/xlink" xml:space="preserve" overflow="hidden"><g transform="translate(-226 -1013)"><path d="M233 1455C233 1455 296.618 1213.83 806.314 1203.93 1316.01 1194.02 1394.23 1020 1394.23 1020 1394.23 1020 1428.5 1233.04 1038.6 1315.53 648.696 1398 422.199 1232.39 233 1455" stroke="#FFFFFF" stroke-width="13.75" stroke-miterlimit="8" fill="none" fill-rule="evenodd"/><path d="M576.977 1249.8C570.103 1249.8 564.19 1252.32 559.243 1257.36 554.292 1262.4 551.819 1268.47 551.819 1275.56 551.819 1282.78 554.292 1288.91 559.243 1293.95 564.19 1298.99 570.103 1301.52 576.977 1301.52 580.273 1301.52 583.398 1301.11 586.355 1300.29 589.31 1299.47 591.473 1298.65 592.846 1297.83L594.699 1296.6 607.067 1321.75C606.102 1322.43 604.761 1323.29 603.042 1324.31 601.33 1325.33 597.414 1326.73 591.3 1328.49 585.183 1330.26 578.619 1331.15 571.611 1331.15 556.08 1331.15 542.441 1325.74 530.686 1314.91 518.938 1304.07 513.067 1291.09 513.067 1275.96 513.067 1260.7 518.938 1247.58 530.686 1236.61 542.441 1225.64 556.08 1220.15 571.611 1220.15 578.619 1220.15 585.078 1220.97 590.981 1222.61 596.89 1224.24 601.088 1225.87 603.566 1227.51L607.067 1229.97 594.699 1254.7C590.166 1251.43 584.26 1249.8 576.977 1249.8Z" fill="#FFFFFF" fill-rule="evenodd"/><path d="M609.837 1315.11C600.002 1304.41 595.084 1291.29 595.084 1275.76 595.084 1260.22 600.002 1247.07 609.837 1236.3 619.678 1225.53 632.187 1220.15 647.359 1220.15 661.302 1220.15 672.785 1224.51 681.807 1233.24L681.807 1223.22 718.084 1223.22 718.084 1328.08 682.214 1328.08 682.214 1316.23 681.807 1316.23C672.785 1326.18 661.302 1331.15 647.359 1331.15 632.187 1331.15 619.678 1325.8 609.837 1315.11ZM640.701 1257.97C635.98 1262.61 633.623 1268.54 633.623 1275.76 633.623 1282.98 635.876 1288.88 640.383 1293.44 644.897 1298.01 650.844 1300.29 658.223 1300.29 665.329 1300.29 671.171 1297.97 675.745 1293.34 680.326 1288.71 682.62 1282.85 682.62 1275.76 682.62 1268.54 680.26 1262.61 675.542 1257.97 670.832 1253.33 665.06 1251.01 658.223 1251.01 651.26 1251.01 645.418 1253.33 640.701 1257.97Z" fill="#FFFFFF" fill-rule="evenodd"/><path d="M723.109 1328.15 723.109 1152.15 759.11 1152.15 759.11 1328.15Z" fill="#FFFFFF" fill-rule="evenodd"/><path d="M768.466 1164.5C772.695 1160.27 777.747 1158.15 783.62 1158.15 789.49 1158.15 794.541 1160.27 798.774 1164.5 803.003 1168.73 805.12 1173.78 805.12 1179.66 805.12 1185.53 803.003 1190.58 798.774 1194.81 794.541 1199.05 789.49 1201.16 783.62 1201.16 777.747 1201.16 772.695 1199.05 768.466 1194.81 764.233 1190.58 762.12 1185.53 762.12 1179.66 762.12 1173.78 764.233 1168.73 768.466 1164.5ZM764.988 1223.07 764.988 1328.15 801.236 1328.15 801.236 1223.07Z" fill="#FFFFFF" fill-rule="evenodd"/><path d="M915.364 1236.23C925.205 1247 930.129 1260.16 930.129 1275.71 930.129 1291.26 925.205 1304.39 915.364 1315.1 905.529 1325.8 893.025 1331.15 877.854 1331.15 863.918 1331.15 852.441 1326.17 843.419 1316.21L843 1316.21 843 1328.08 807.129 1328.08 807.129 1152.15 843.419 1152.15 843.419 1233.16C852.441 1224.43 863.918 1220.06 877.854 1220.06 893.025 1220.06 905.529 1225.45 915.364 1236.23ZM884.817 1293.42C889.331 1288.84 891.589 1282.94 891.589 1275.71 891.589 1268.49 889.229 1262.55 884.512 1257.91 879.801 1253.27 873.959 1250.95 866.99 1250.95 860.154 1250.95 854.375 1253.27 849.658 1257.91 844.947 1262.55 842.593 1268.49 842.593 1275.71 842.593 1282.81 844.88 1288.67 849.455 1293.31 854.035 1297.95 859.88 1300.26 866.99 1300.26 874.366 1300.26 880.309 1297.98 884.817 1293.42Z" fill="#FFFFFF" fill-rule="evenodd"/><path d="M1033.95 1280.66 957.817 1280.66C957.817 1288.02 960.201 1293.47 964.971 1297.02 969.747 1300.56 974.935 1302.33 980.536 1302.33 986.396 1302.33 991.029 1301.55 994.438 1299.98 997.854 1298.41 1001.74 1295.31 1006.11 1290.67L1032.32 1303.76C1021.4 1322.02 1003.25 1331.15 977.872 1331.15 962.041 1331.15 948.461 1325.74 937.14 1314.91 925.816 1304.07 920.155 1291.02 920.155 1275.76 920.155 1260.5 925.816 1247.41 937.14 1236.51 948.461 1225.6 962.041 1220.15 977.872 1220.15 994.514 1220.15 1008.05 1224.96 1018.49 1234.57 1028.93 1244.17 1034.16 1257.9 1034.16 1275.76 1034.16 1278.21 1034.09 1279.84 1033.95 1280.66ZM958.831 1260.63 998.751 1260.63C997.93 1255.18 995.777 1250.99 992.294 1248.06 988.819 1245.13 984.354 1243.67 978.899 1243.67 972.893 1243.67 968.117 1245.23 964.565 1248.37 961.02 1251.5 959.111 1255.59 958.831 1260.63Z" fill="#FFFFFF" fill-rule="evenodd"/><path d="M1032.18 1328.15 1032.18 1223.22 1068.53 1223.22 1068.53 1238.35 1068.94 1238.35C1069.21 1237.82 1069.65 1237.13 1070.27 1236.31 1070.89 1235.5 1072.23 1234.06 1074.28 1232.02 1076.34 1229.97 1078.53 1228.13 1080.85 1226.5 1083.17 1224.86 1086.18 1223.4 1089.88 1222.1 1093.57 1220.8 1097.34 1220.15 1101.18 1220.15 1105.15 1220.15 1109.05 1220.69 1112.88 1221.79 1116.71 1222.88 1119.52 1223.97 1121.3 1225.06L1124.18 1226.7 1108.98 1257.38C1104.47 1253.56 1098.17 1251.65 1090.09 1251.65 1085.71 1251.65 1081.95 1252.61 1078.79 1254.52 1075.64 1256.43 1073.42 1258.75 1072.12 1261.48 1070.82 1264.2 1069.9 1266.52 1069.35 1268.43 1068.8 1270.34 1068.53 1271.84 1068.53 1272.93L1068.53 1328.15Z" fill="#FFFFFF" fill-rule="evenodd"/></g></svg>